<svg width="32" height="20" viewBox="0 0 32 20" fill="none" xmlns="http://www.w3.org/2000/svg">
<path d="M26.1063 9.21013C25.4585 9.7727 23.7312 10.1589 22.9485 10.2817H20.8027H17.6449H14.3656H11.228H8.09038H4.85156C5.15223 13.1737 7.42966 18.716 14.134 17.7491C22.5145 16.5405 28.4994 8.11603 28.2274 7.54676C28.3569 6.04657 26.97 4.61135 26.2278 4.08673C24.6084 5.50655 25.472 8.09392 26.1063 9.21013Z" fill="#25B8EB"/>
<path d="M23.9368 12.7203C17.834 17.6962 7.36663 20.6619 6.0351 12.7203H23.9368Z" fill="#049BC6"/>
<path d="M12.9516 14.9611C12.9516 15.4161 12.6205 15.7849 12.2119 15.7849C11.8034 15.7849 11.4722 15.4161 11.4722 14.9611C11.4722 14.5061 11.8034 14.1373 12.2119 14.1373C12.6205 14.1373 12.9516 14.5061 12.9516 14.9611Z" fill="white"/>
<path fill-rule="evenodd" clip-rule="evenodd" d="M12.3221 14.4143C12.2991 14.4586 12.2859 14.5104 12.2859 14.5657C12.2859 14.7295 12.4019 14.8622 12.5449 14.8622C12.6039 14.8622 12.6583 14.8396 12.7019 14.8015C12.72 14.8619 12.7298 14.9266 12.7298 14.994C12.7298 15.3216 12.498 15.5872 12.212 15.5872C11.926 15.5872 11.6942 15.3216 11.6942 14.994C11.6942 14.6665 11.926 14.4009 12.212 14.4009C12.2498 14.4009 12.2866 14.4055 12.3221 14.4143Z" fill="#3A4D58"/>
<path d="M31.6671 7.84332C30.4323 6.87395 28.7777 7.252 28.0794 7.54674C24.6396 15.8179 5.04235 23.7924 5.96117 10.2459H4.28623C4.15302 12.1302 4.50264 14.465 5.79309 16.3669C7.3509 18.6628 10.2798 20.328 15.3855 19.8086C22.8536 19.0488 26.6428 12.9219 27.5616 10.0182C30.2986 10.2489 31.4099 8.69479 31.6671 7.84332Z" fill="#028BB7"/>
<path d="M32 12.7203H0.0432129C1.84818 12.483 2.12682 11.6768 2.04051 11.3033C3.75671 13.0696 6.13374 12.259 7.10773 11.6329C8.84612 13.1157 12.8777 12.226 13.3216 11.4352C15.452 13.3332 18.0189 12.259 18.7586 11.4352C20.682 13.1157 24.6026 12.3908 24.9355 11.6658C27.8057 13.0894 29.5342 12.0173 30.0397 11.3033C29.8622 12.226 31.2726 12.6324 32 12.7203Z" fill="#3A4D53"/>
<path d="M10.9544 16.1144C9.99277 16.5099 7.25573 16.5648 5.92419 16.444C6.81188 17.7621 9.21604 20.2006 14.6531 19.7722C12.7002 19.5086 11.4229 17.2019 10.9544 16.1144Z" fill="white"/>
<path d="M15.1425 19.8083C15.2737 19.7977 15.4065 19.7857 15.5408 19.7722C15.4059 19.7945 15.2731 19.8062 15.1425 19.8083C10.2851 20.2006 7.53119 18.6271 5.96112 16.444C6.72518 16.4625 8.13797 16.5323 8.21733 16.4878C9.16802 17.1349 10.4103 17.4727 11.7311 17.5314C12.2618 18.3947 13.5275 19.8344 15.1425 19.8083Z" fill="#BFDBDF"/>
<path fill-rule="evenodd" clip-rule="evenodd" d="M21.2738 10.183V6.92065H18.3888V3.88901V0.791458H15.3928V3.88901H12.5448H9.65983V6.92065H6.70087V10.183H9.65983H12.5263H15.3928H18.3888H21.2738Z" fill="#25B8EB"/>
<path fill-rule="evenodd" clip-rule="evenodd" d="M15.2819 0.791454C15.2819 0.736857 15.3315 0.692596 15.3928 0.692596H18.3888C18.45 0.692596 18.4997 0.736857 18.4997 0.791454V6.82179H21.2738C21.335 6.82179 21.3847 6.86605 21.3847 6.92065V10.0841H23.2236C23.577 10.0239 24.1389 9.90059 24.6851 9.72502C25.2078 9.55701 25.6988 9.3464 25.9857 9.10703C25.6991 8.54432 25.3746 7.65437 25.2918 6.72748C25.2059 5.76658 25.3785 4.74685 26.1493 4.01888C26.1899 3.98054 26.2571 3.97732 26.3021 4.01156C26.649 4.27564 27.1674 4.76288 27.585 5.37225C27.973 5.93827 28.2798 6.61818 28.2714 7.32726C28.6412 7.19498 29.1761 7.07195 29.7627 7.06976C30.4456 7.06721 31.2048 7.22867 31.8514 7.73619C31.8831 7.76105 31.8962 7.79976 31.8852 7.83607C31.6195 8.7154 30.4062 10.3882 27.6799 10.1899C27.1971 11.6647 26.0325 13.873 24.0683 15.8197C22.0676 17.8027 19.2332 19.5177 15.4424 19.9034C12.8575 20.1663 10.815 19.8771 9.21786 19.2258C7.62021 18.5743 6.47528 17.5633 5.68123 16.3932C4.36735 14.457 4.01399 12.0859 4.14898 10.1767C4.15266 10.1247 4.20115 10.0841 4.25972 10.0841H6.5899V6.92065C6.5899 6.86605 6.63958 6.82179 6.70086 6.82179H9.54887V3.889C9.54887 3.83441 9.59854 3.79015 9.65983 3.79015H15.2819V0.791454ZM15.2819 3.98786H12.6555L12.6472 6.82179H15.2819V3.98786ZM15.5038 6.82179V3.98786H18.2778V6.82179H15.5038ZM15.2819 7.0195H12.6466L12.6376 10.0841H15.2819V7.0195ZM15.5038 10.0841V7.0195H18.2778V10.0841H15.5038ZM18.4997 10.0841H21.1628V7.0195H18.4997V10.0841ZM12.4156 10.0841L12.4247 7.0195H9.77079V10.0841H12.4156ZM9.54887 10.0841V7.0195H6.81183V10.0841H9.54887ZM9.77079 6.82179H12.4252L12.4336 3.98786H9.77079V6.82179ZM18.2778 3.79015H15.5038V0.890312H18.2778V3.79015ZM15.9476 1.25279C16.0089 1.25279 16.0586 1.29705 16.0586 1.35165V3.46062C16.0586 3.51522 16.0089 3.55948 15.9476 3.55948C15.8863 3.55948 15.8367 3.51522 15.8367 3.46062V1.35165C15.8367 1.29705 15.8863 1.25279 15.9476 1.25279ZM16.3175 1.25279C16.3788 1.25279 16.4285 1.29705 16.4285 1.35165V3.46062C16.4285 3.51522 16.3788 3.55948 16.3175 3.55948C16.2562 3.55948 16.2065 3.51522 16.2065 3.46062V1.35165C16.2065 1.29705 16.2562 1.25279 16.3175 1.25279ZM16.6874 1.25279C16.7486 1.25279 16.7983 1.29705 16.7983 1.35165V3.46062C16.7983 3.51522 16.7486 3.55948 16.6874 3.55948C16.6261 3.55948 16.5764 3.51522 16.5764 3.46062V1.35165C16.5764 1.29705 16.6261 1.25279 16.6874 1.25279ZM17.0572 1.25279C17.1185 1.25279 17.1682 1.29705 17.1682 1.35165V3.46062C17.1682 3.51522 17.1185 3.55948 17.0572 3.55948C16.9959 3.55948 16.9463 3.51522 16.9463 3.46062V1.35165C16.9463 1.29705 16.9959 1.25279 17.0572 1.25279ZM17.4271 1.25279C17.4884 1.25279 17.5381 1.29705 17.5381 1.35165V3.46062C17.5381 3.51522 17.4884 3.55948 17.4271 3.55948C17.3658 3.55948 17.3161 3.51522 17.3161 3.46062V1.35165C17.3161 1.29705 17.3658 1.25279 17.4271 1.25279ZM17.797 1.25279C17.8583 1.25279 17.9079 1.29705 17.9079 1.35165V3.46062C17.9079 3.51522 17.8583 3.55948 17.797 3.55948C17.7357 3.55948 17.686 3.51522 17.686 3.46062V1.35165C17.686 1.29705 17.7357 1.25279 17.797 1.25279ZM26.2389 4.22522C25.5904 4.88981 25.4323 5.80819 25.513 6.71179C25.5965 7.64621 25.9343 8.54576 26.2195 9.08642C26.2389 9.12334 26.231 9.16712 26.1994 9.19665C25.8842 9.49153 25.3198 9.73122 24.7604 9.911C24.1962 10.0924 23.6171 10.2189 23.2547 10.2801C23.2479 10.2812 23.241 10.2818 23.2341 10.2818H4.36433C4.24992 12.1337 4.60311 14.3952 5.84207 16.2477C6.4957 16.2949 7.54275 16.3237 8.561 16.2757C9.08497 16.251 9.59915 16.2061 10.047 16.1335C10.4972 16.0605 10.871 15.961 11.1204 15.8313C11.1733 15.8038 11.2413 15.8197 11.2721 15.8669C11.303 15.9141 11.2851 15.9746 11.2322 16.0021C10.949 16.1493 10.5448 16.2538 10.0868 16.328C9.6265 16.4027 9.10227 16.4482 8.57272 16.4732C7.62416 16.5178 6.65162 16.4967 5.9861 16.4556C6.75379 17.5254 7.83287 18.4436 9.31023 19.046C10.8634 19.6794 12.8638 19.9666 15.4172 19.7069C19.1422 19.328 21.9298 17.6435 23.9033 15.6875C25.8781 13.7303 27.0336 11.5049 27.4917 10.0573C27.5063 10.0112 27.5559 9.98105 27.6093 9.98571C30.2003 10.2115 31.3665 8.68361 31.6518 7.84407C31.0673 7.40788 30.3879 7.26515 29.7637 7.26747C29.1189 7.26988 28.5394 7.42731 28.2008 7.57018C28.1652 7.58523 28.1233 7.58228 28.0907 7.56244C28.0581 7.5426 28.0399 7.50885 28.0427 7.4738C28.0996 6.76419 27.8002 6.06558 27.3956 5.47529C27.0233 4.93198 26.5674 4.48877 26.2389 4.22522ZM10.2146 4.31739C10.2759 4.31739 10.3256 4.36165 10.3256 4.41625V6.52522C10.3256 6.57981 10.2759 6.62407 10.2146 6.62407C10.1533 6.62407 10.1037 6.57981 10.1037 6.52522V4.41625C10.1037 4.36165 10.1533 4.31739 10.2146 4.31739ZM10.5845 4.31739C10.6458 4.31739 10.6955 4.36165 10.6955 4.41625V6.52522C10.6955 6.57981 10.6458 6.62407 10.5845 6.62407C10.5232 6.62407 10.4735 6.57981 10.4735 6.52522V4.41625C10.4735 4.36165 10.5232 4.31739 10.5845 4.31739ZM10.9544 4.31739C11.0157 4.31739 11.0653 4.36165 11.0653 4.41625V6.52522C11.0653 6.57981 11.0157 6.62407 10.9544 6.62407C10.8931 6.62407 10.8434 6.57981 10.8434 6.52522V4.41625C10.8434 4.36165 10.8931 4.31739 10.9544 4.31739ZM11.3242 4.31739C11.3855 4.31739 11.4352 4.36165 11.4352 4.41625V6.52522C11.4352 6.57981 11.3855 6.62407 11.3242 6.62407C11.263 6.62407 11.2133 6.57981 11.2133 6.52522V4.41625C11.2133 4.36165 11.263 4.31739 11.3242 4.31739ZM11.6941 4.31739C11.7554 4.31739 11.8051 4.36165 11.8051 4.41625V6.52522C11.8051 6.57981 11.7554 6.62407 11.6941 6.62407C11.6328 6.62407 11.5832 6.57981 11.5832 6.52522V4.41625C11.5832 4.36165 11.6328 4.31739 11.6941 4.31739ZM12.064 4.31739C12.1253 4.31739 12.1749 4.36165 12.1749 4.41625V6.52522C12.1749 6.57981 12.1253 6.62407 12.064 6.62407C12.0027 6.62407 11.953 6.57981 11.953 6.52522V4.41625C11.953 4.36165 12.0027 4.31739 12.064 4.31739ZM13.0626 4.31739C13.1239 4.31739 13.1736 4.36165 13.1736 4.41625V6.52522C13.1736 6.57981 13.1239 6.62407 13.0626 6.62407C13.0014 6.62407 12.9517 6.57981 12.9517 6.52522V4.41625C12.9517 4.36165 13.0014 4.31739 13.0626 4.31739ZM13.4325 4.31739C13.4938 4.31739 13.5435 4.36165 13.5435 4.41625V6.52522C13.5435 6.57981 13.4938 6.62407 13.4325 6.62407C13.3712 6.62407 13.3215 6.57981 13.3215 6.52522V4.41625C13.3215 4.36165 13.3712 4.31739 13.4325 4.31739ZM13.8024 4.31739C13.8637 4.31739 13.9133 4.36165 13.9133 4.41625V6.52522C13.9133 6.57981 13.8637 6.62407 13.8024 6.62407C13.7411 6.62407 13.6914 6.57981 13.6914 6.52522V4.41625C13.6914 4.36165 13.7411 4.31739 13.8024 4.31739ZM14.1722 4.31739C14.2335 4.31739 14.2832 4.36165 14.2832 4.41625V6.52522C14.2832 6.57981 14.2335 6.62407 14.1722 6.62407C14.111 6.62407 14.0613 6.57981 14.0613 6.52522V4.41625C14.0613 4.36165 14.111 4.31739 14.1722 4.31739ZM14.5421 4.31739C14.6034 4.31739 14.6531 4.36165 14.6531 4.41625V6.52522C14.6531 6.57981 14.6034 6.62407 14.5421 6.62407C14.4808 6.62407 14.4312 6.57981 14.4312 6.52522V4.41625C14.4312 4.36165 14.4808 4.31739 14.5421 4.31739ZM14.912 4.31739C14.9733 4.31739 15.0229 4.36165 15.0229 4.41625V6.52522C15.0229 6.57981 14.9733 6.62407 14.912 6.62407C14.8507 6.62407 14.801 6.57981 14.801 6.52522V4.41625C14.801 4.36165 14.8507 4.31739 14.912 4.31739ZM15.9476 4.31739C16.0089 4.31739 16.0586 4.36165 16.0586 4.41625V6.52522C16.0586 6.57981 16.0089 6.62407 15.9476 6.62407C15.8863 6.62407 15.8367 6.57981 15.8367 6.52522V4.41625C15.8367 4.36165 15.8863 4.31739 15.9476 4.31739ZM16.3175 4.31739C16.3788 4.31739 16.4285 4.36165 16.4285 4.41625V6.52522C16.4285 6.57981 16.3788 6.62407 16.3175 6.62407C16.2562 6.62407 16.2065 6.57981 16.2065 6.52522V4.41625C16.2065 4.36165 16.2562 4.31739 16.3175 4.31739ZM16.6874 4.31739C16.7486 4.31739 16.7983 4.36165 16.7983 4.41625V6.52522C16.7983 6.57981 16.7486 6.62407 16.6874 6.62407C16.6261 6.62407 16.5764 6.57981 16.5764 6.52522V4.41625C16.5764 4.36165 16.6261 4.31739 16.6874 4.31739ZM17.0572 4.31739C17.1185 4.31739 17.1682 4.36165 17.1682 4.41625V6.52522C17.1682 6.57981 17.1185 6.62407 17.0572 6.62407C16.9959 6.62407 16.9463 6.57981 16.9463 6.52522V4.41625C16.9463 4.36165 16.9959 4.31739 17.0572 4.31739ZM17.4271 4.31739C17.4884 4.31739 17.5381 4.36165 17.5381 4.41625V6.52522C17.5381 6.57981 17.4884 6.62407 17.4271 6.62407C17.3658 6.62407 17.3161 6.57981 17.3161 6.52522V4.41625C17.3161 4.36165 17.3658 4.31739 17.4271 4.31739ZM17.797 4.31739C17.8583 4.31739 17.9079 4.36165 17.9079 4.41625V6.52522C17.9079 6.57981 17.8583 6.62407 17.797 6.62407C17.7357 6.62407 17.686 6.57981 17.686 6.52522V4.41625C17.686 4.36165 17.7357 4.31739 17.797 4.31739ZM7.32964 7.38198C7.39093 7.38198 7.4406 7.42624 7.4406 7.48084V9.58981C7.4406 9.64441 7.39093 9.68867 7.32964 9.68867C7.26836 9.68867 7.21868 9.64441 7.21868 9.58981V7.48084C7.21868 7.42624 7.26836 7.38198 7.32964 7.38198ZM7.69951 7.38198C7.7608 7.38198 7.81048 7.42624 7.81048 7.48084V9.58981C7.81048 9.64441 7.7608 9.68867 7.69951 9.68867C7.63823 9.68867 7.58855 9.64441 7.58855 9.58981V7.48084C7.58855 7.42624 7.63823 7.38198 7.69951 7.38198ZM8.06938 7.38198C8.13067 7.38198 8.18035 7.42624 8.18035 7.48084V9.58981C8.18035 9.64441 8.13067 9.68867 8.06938 9.68867C8.0081 9.68867 7.95842 9.64441 7.95842 9.58981V7.48084C7.95842 7.42624 8.0081 7.38198 8.06938 7.38198ZM8.43925 7.38198C8.50054 7.38198 8.55022 7.42624 8.55022 7.48084V9.58981C8.55022 9.64441 8.50054 9.68867 8.43925 9.68867C8.37797 9.68867 8.32829 9.64441 8.32829 9.58981V7.48084C8.32829 7.42624 8.37797 7.38198 8.43925 7.38198ZM8.80912 7.38198C8.87041 7.38198 8.92009 7.42624 8.92009 7.48084V9.58981C8.92009 9.64441 8.87041 9.68867 8.80912 9.68867C8.74784 9.68867 8.69816 9.64441 8.69816 9.58981V7.48084C8.69816 7.42624 8.74784 7.38198 8.80912 7.38198ZM9.179 7.38198C9.24028 7.38198 9.28996 7.42624 9.28996 7.48084V9.58981C9.28996 9.64441 9.24028 9.68867 9.179 9.68867C9.11771 9.68867 9.06803 9.64441 9.06803 9.58981V7.48084C9.06803 7.42624 9.11771 7.38198 9.179 7.38198ZM10.2146 7.38198C10.2759 7.38198 10.3256 7.42624 10.3256 7.48084V9.58981C10.3256 9.64441 10.2759 9.68867 10.2146 9.68867C10.1533 9.68867 10.1037 9.64441 10.1037 9.58981V7.48084C10.1037 7.42624 10.1533 7.38198 10.2146 7.38198ZM10.5845 7.38198C10.6458 7.38198 10.6955 7.42624 10.6955 7.48084V9.58981C10.6955 9.64441 10.6458 9.68867 10.5845 9.68867C10.5232 9.68867 10.4735 9.64441 10.4735 9.58981V7.48084C10.4735 7.42624 10.5232 7.38198 10.5845 7.38198ZM10.9544 7.38198C11.0157 7.38198 11.0653 7.42624 11.0653 7.48084V9.58981C11.0653 9.64441 11.0157 9.68867 10.9544 9.68867C10.8931 9.68867 10.8434 9.64441 10.8434 9.58981V7.48084C10.8434 7.42624 10.8931 7.38198 10.9544 7.38198ZM11.3242 7.38198C11.3855 7.38198 11.4352 7.42624 11.4352 7.48084V9.58981C11.4352 9.64441 11.3855 9.68867 11.3242 9.68867C11.263 9.68867 11.2133 9.64441 11.2133 9.58981V7.48084C11.2133 7.42624 11.263 7.38198 11.3242 7.38198ZM11.6941 7.38198C11.7554 7.38198 11.8051 7.42624 11.8051 7.48084V9.58981C11.8051 9.64441 11.7554 9.68867 11.6941 9.68867C11.6328 9.68867 11.5832 9.64441 11.5832 9.58981V7.48084C11.5832 7.42624 11.6328 7.38198 11.6941 7.38198ZM12.064 7.38198C12.1253 7.38198 12.1749 7.42624 12.1749 7.48084V9.58981C12.1749 9.64441 12.1253 9.68867 12.064 9.68867C12.0027 9.68867 11.953 9.64441 11.953 9.58981V7.48084C11.953 7.42624 12.0027 7.38198 12.064 7.38198ZM13.0626 7.38198C13.1239 7.38198 13.1736 7.42624 13.1736 7.48084V9.58981C13.1736 9.64441 13.1239 9.68867 13.0626 9.68867C13.0014 9.68867 12.9517 9.64441 12.9517 9.58981V7.48084C12.9517 7.42624 13.0014 7.38198 13.0626 7.38198ZM13.4325 7.38198C13.4938 7.38198 13.5435 7.42624 13.5435 7.48084V9.58981C13.5435 9.64441 13.4938 9.68867 13.4325 9.68867C13.3712 9.68867 13.3215 9.64441 13.3215 9.58981V7.48084C13.3215 7.42624 13.3712 7.38198 13.4325 7.38198ZM13.8024 7.38198C13.8637 7.38198 13.9133 7.42624 13.9133 7.48084V9.58981C13.9133 9.64441 13.8637 9.68867 13.8024 9.68867C13.7411 9.68867 13.6914 9.64441 13.6914 9.58981V7.48084C13.6914 7.42624 13.7411 7.38198 13.8024 7.38198ZM14.1722 7.38198C14.2335 7.38198 14.2832 7.42624 14.2832 7.48084V9.58981C14.2832 9.64441 14.2335 9.68867 14.1722 9.68867C14.111 9.68867 14.0613 9.64441 14.0613 9.58981V7.48084C14.0613 7.42624 14.111 7.38198 14.1722 7.38198ZM14.5421 7.38198C14.6034 7.38198 14.6531 7.42624 14.6531 7.48084V9.58981C14.6531 9.64441 14.6034 9.68867 14.5421 9.68867C14.4808 9.68867 14.4312 9.64441 14.4312 9.58981V7.48084C14.4312 7.42624 14.4808 7.38198 14.5421 7.38198ZM14.912 7.38198C14.9733 7.38198 15.0229 7.42624 15.0229 7.48084V9.58981C15.0229 9.64441 14.9733 9.68867 14.912 9.68867C14.8507 9.68867 14.801 9.64441 14.801 9.58981V7.48084C14.801 7.42624 14.8507 7.38198 14.912 7.38198ZM15.9476 7.38198C16.0089 7.38198 16.0586 7.42624 16.0586 7.48084V9.58981C16.0586 9.64441 16.0089 9.68867 15.9476 9.68867C15.8863 9.68867 15.8367 9.64441 15.8367 9.58981V7.48084C15.8367 7.42624 15.8863 7.38198 15.9476 7.38198ZM16.3175 7.38198C16.3788 7.38198 16.4285 7.42624 16.4285 7.48084V9.58981C16.4285 9.64441 16.3788 9.68867 16.3175 9.68867C16.2562 9.68867 16.2065 9.64441 16.2065 9.58981V7.48084C16.2065 7.42624 16.2562 7.38198 16.3175 7.38198ZM16.6874 7.38198C16.7486 7.38198 16.7983 7.42624 16.7983 7.48084V9.58981C16.7983 9.64441 16.7486 9.68867 16.6874 9.68867C16.6261 9.68867 16.5764 9.64441 16.5764 9.58981V7.48084C16.5764 7.42624 16.6261 7.38198 16.6874 7.38198ZM17.0572 7.38198C17.1185 7.38198 17.1682 7.42624 17.1682 7.48084V9.58981C17.1682 9.64441 17.1185 9.68867 17.0572 9.68867C16.9959 9.68867 16.9463 9.64441 16.9463 9.58981V7.48084C16.9463 7.42624 16.9959 7.38198 17.0572 7.38198ZM17.4271 7.38198C17.4884 7.38198 17.5381 7.42624 17.5381 7.48084V9.58981C17.5381 9.64441 17.4884 9.68867 17.4271 9.68867C17.3658 9.68867 17.3161 9.64441 17.3161 9.58981V7.48084C17.3161 7.42624 17.3658 7.38198 17.4271 7.38198ZM17.797 7.38198C17.8583 7.38198 17.9079 7.42624 17.9079 7.48084V9.58981C17.9079 9.64441 17.8583 9.68867 17.797 9.68867C17.7357 9.68867 17.686 9.64441 17.686 9.58981V7.48084C17.686 7.42624 17.7357 7.38198 17.797 7.38198ZM18.8326 7.38198C18.8939 7.38198 18.9436 7.42624 18.9436 7.48084V9.58981C18.9436 9.64441 18.8939 9.68867 18.8326 9.68867C18.7713 9.68867 18.7216 9.64441 18.7216 9.58981V7.48084C18.7216 7.42624 18.7713 7.38198 18.8326 7.38198ZM19.2025 7.38198C19.2638 7.38198 19.3134 7.42624 19.3134 7.48084V9.58981C19.3134 9.64441 19.2638 9.68867 19.2025 9.68867C19.1412 9.68867 19.0915 9.64441 19.0915 9.58981V7.48084C19.0915 7.42624 19.1412 7.38198 19.2025 7.38198ZM19.5723 7.38198C19.6336 7.38198 19.6833 7.42624 19.6833 7.48084V9.58981C19.6833 9.64441 19.6336 9.68867 19.5723 9.68867C19.5111 9.68867 19.4614 9.64441 19.4614 9.58981V7.48084C19.4614 7.42624 19.5111 7.38198 19.5723 7.38198ZM19.9422 7.38198C20.0035 7.38198 20.0532 7.42624 20.0532 7.48084V9.58981C20.0532 9.64441 20.0035 9.68867 19.9422 9.68867C19.8809 9.68867 19.8313 9.64441 19.8313 9.58981V7.48084C19.8313 7.42624 19.8809 7.38198 19.9422 7.38198ZM20.3121 7.38198C20.3734 7.38198 20.423 7.42624 20.423 7.48084V9.58981C20.423 9.64441 20.3734 9.68867 20.3121 9.68867C20.2508 9.68867 20.2011 9.64441 20.2011 9.58981V7.48084C20.2011 7.42624 20.2508 7.38198 20.3121 7.38198ZM20.682 7.38198C20.7432 7.38198 20.7929 7.42624 20.7929 7.48084V9.58981C20.7929 9.64441 20.7432 9.68867 20.682 9.68867C20.6207 9.68867 20.571 9.64441 20.571 9.58981V7.48084C20.571 7.42624 20.6207 7.38198 20.682 7.38198Z" fill="#374A53"/>
</svg>
